<svg xmlns="http://www.w3.org/2000/svg" width="128" height="128" viewBox="0 0 128 128">
<defs><filter id="glow" x="-50%" y="-50%" width="200%" height="200%"><feGaussianBlur stdDeviation="2" result="blur"/><feMerge><feMergeNode in="blur"/><feMergeNode in="SourceGraphic"/></feMerge></filter></defs><circle cx="64" cy="64" r="58" fill="#121212" stroke="#2a2a3a" stroke-width="2"/><circle cx="64" cy="64" r="52" fill="none" stroke="#ff6b35" stroke-width="1.5" opacity="0.35"/><g stroke="#ff6b35" stroke-width="3" fill="none" stroke-linecap="round" stroke-linejoin="round"><path d="M64 90 C52 78 48 68 52 58 C54 52 58 48 64 38 C70 48 74 52 76 58 C80 68 76 78 64 90 Z"/><path d="M64 82 C58 74 56 68 58 62 C59 58 61 56 64 50 C67 56 69 58 70 62 C72 68 70 74 64 82 Z" fill="#ff6b35" opacity="0.4"/></g></svg>
